<svg width="796" height="873" viewBox="0 0 796 873" fill="none" xmlns="http://www.w3.org/2000/svg">
<path fill-rule="evenodd" clip-rule="evenodd" d="M170.612 251.494C236.608 251.004 315.638 243.906 341.654 304.611C373.578 379.102 351.248 471.229 284.377 516.95C221.952 559.631 142.521 527.634 82.2287 481.985C26.3387 439.669 -17.9032 372.578 7.20671 307.095C29.9959 247.664 107.01 251.966 170.612 251.494Z" fill="url(#paint0_radial_71_7)"/>
<path fill-rule="evenodd" clip-rule="evenodd" d="M610.612 0.49382C676.608 0.00375023 755.638 -7.09377 781.654 53.6113C813.578 128.102 791.248 220.229 724.377 265.95C661.952 308.631 582.521 276.634 522.229 230.985C466.339 188.669 422.097 121.578 447.207 56.0948C469.996 -3.3363 547.01 0.966112 610.612 0.49382Z" fill="url(#paint1_radial_71_7)"/>
<path fill-rule="evenodd" clip-rule="evenodd" d="M612.388 872.506C546.392 872.996 467.362 880.094 441.346 819.389C409.422 744.898 431.752 652.771 498.623 607.05C561.048 564.369 640.479 596.366 700.771 642.015C756.661 684.331 800.903 751.422 775.793 816.905C753.004 876.336 675.99 872.034 612.388 872.506Z" fill="url(#paint2_radial_71_7)"/>
<defs>
<radialGradient id="paint0_radial_71_7" cx="0" cy="0" r="1" gradientUnits="userSpaceOnUse" gradientTransform="translate(112 322.5) rotate(161.211) scale(358.609 446.38)">
<stop stop-color="#BD00FF"/>
<stop offset="1" stop-color="#F10B0B"/>
</radialGradient>
<radialGradient id="paint1_radial_71_7" cx="0" cy="0" r="1" gradientUnits="userSpaceOnUse" gradientTransform="translate(552 71.5) rotate(161.211) scale(358.609 446.38)">
<stop stop-color="#BD00FF"/>
<stop offset="1" stop-color="#F10B0B"/>
</radialGradient>
<radialGradient id="paint2_radial_71_7" cx="0" cy="0" r="1" gradientUnits="userSpaceOnUse" gradientTransform="translate(671 801.5) rotate(-18.7886) scale(358.609 446.381)">
<stop stop-color="#BD00FF"/>
<stop offset="1" stop-color="#F10B0B"/>
</radialGradient>
</defs>
</svg>
